<svg id="Layer_1" data-name="Layer 1" xmlns="http://www.w3.org/2000/svg" viewBox="0 0 296.16 52.67"><defs><style>.cls-1{fill:#242424;}.cls-2{fill:#b0b579;}</style></defs><path class="cls-1" d="M8.49,16.71a5.93,5.93,0,0,0,4.77,5.61l-.33.48a7.53,7.53,0,0,1-2.43-.37c-3.34-.58-5.72-2.86-5.79-6.31-.15-4.73,4.14-9,12.73-9,6.83,0,10.79,1.32,16,1.43.59,0,1.25,0,2-.07l.15.66a27.48,27.48,0,0,0-9.8,6.93,22.27,22.27,0,0,0-5.28,10c-.56,2.53-.66,5.06.51,6.64,3.27-.29,5.94-3,8.4-6.53,1.73-2.42,3.45-5.43,5.43-8.33s3.82-4.88,6-6a12.31,12.31,0,0,1,5.58-1.28l.11.33a9.44,9.44,0,0,0-2.31,1.57,23.22,23.22,0,0,0-3.89,4.85,24.77,24.77,0,0,0-3.93,9.58c-.33,2.38-.11,4.58.77,5.9,4.48-.91,8.15-7,12.63-13.39,5.58-8,9.91-12.18,16-12.18a4.57,4.57,0,0,1,2.46.58l-.22.63a4.3,4.3,0,0,0-1.22-.15c-3.89,0-8.25,6.35-11.74,11.49C49,28.85,43.27,33.63,37,33.77c-2-.11-5.11-2.53-4.92-7.12-2.57,3.6-6.24,7.09-11.49,7.12-2.49-.29-5.54-2.27-5.43-7.41a15.15,15.15,0,0,1,4.59-10.5,24.81,24.81,0,0,1,10.35-6l0-.11c-2.64-.11-5.91-.58-10.35-.58C12.05,9.19,8.38,11.94,8.49,16.71Z"/><path class="cls-1" d="M54.73,28.56a8.46,8.46,0,0,1,3.7-6.6,12.18,12.18,0,0,1,7.42-2.54c3.81,0,5.65,2,5.65,4.63A9.23,9.23,0,0,1,69,30a11,11,0,0,1-8.18,3.6C57.15,33.59,54.73,31.9,54.73,28.56Zm12-7.56c-1.62,0-3.6,1.21-5,3.08a9.25,9.25,0,0,0-2.09,5.22A2.4,2.4,0,0,0,62.18,32c1.65,0,3.37-1.17,4.66-2.78a9.94,9.94,0,0,0,2.35-5.66A2.27,2.27,0,0,0,66.73,21Z"/><path class="cls-1" d="M77.59,29.19a35.83,35.83,0,0,0-1.83,4.22c-1.54.07-3.34-.33-3.27-2.57,0-1.84,1.17-4.15,2.75-6.43A19.65,19.65,0,0,1,79.1,20h3.7l.3.51a21.31,21.31,0,0,0-1.8,2.32l.11.11c2.2-1.73,4.77-3.16,7.56-3.16,2.2,0,3.15.95,3.41,2a2.83,2.83,0,0,1,0,1.36c1.91-1.62,5-3.38,7.92-3.38,2.5,0,3.67,1.14,3.64,2.64,0,1.21-.88,2.31-2,3.89s-2,2.76-2,3.67c0,.74.4,1.36,1.58,1.36a5.66,5.66,0,0,0,3.45-1.43l-.37,1a8.61,8.61,0,0,1-5.83,2.49c-2.1,0-3.64-.77-3.6-2.82a8.89,8.89,0,0,1,1.91-4.48c1-1.43,1.76-2.39,1.76-3.23s-.48-1.14-1.65-1.14c-1.47,0-3.38.92-5.25,2.57a29.56,29.56,0,0,0-2.9,4.74,39,39,0,0,0-1.91,4.33c-1.58.07-3.3-.33-3.26-2.5a10.7,10.7,0,0,1,1.94-4.81c.74-1.25,1.62-2.35,1.62-3.19s-.48-1.14-1.65-1.14c-1.33,0-3.67,1.1-5.4,2.68A31.82,31.82,0,0,0,77.59,29.19Z"/><path class="cls-1" d="M112.49,33.59c-3.81,0-6.16-1.43-6.16-4.81a9,9,0,0,1,3.92-6.93,13,13,0,0,1,7.6-2.43c2.61,0,4.62.92,4.66,3.12s-2.13,3.75-4.44,4.44a18,18,0,0,1-6.68.81,4.7,4.7,0,0,0-.11.95c0,2.1,1.25,3,3.34,3a9.6,9.6,0,0,0,6-2.27l-.26,1.21A11.71,11.71,0,0,1,112.49,33.59Zm-.88-6.72a13.44,13.44,0,0,0,5.14-.66c1.91-.66,3.34-1.87,3.41-3.34,0-1.1-.62-1.76-1.94-1.76a6,6,0,0,0-3.82,1.58A8.9,8.9,0,0,0,111.61,26.87Z"/><path class="cls-1" d="M134.51,30.62c0-1.54.88-2.94,1.84-4.41s1.83-2.46,1.83-3.3-.51-1.14-1.69-1.14a9.65,9.65,0,0,0-5.61,2.68,32.85,32.85,0,0,0-3,4.88,32,32,0,0,0-1.77,4.08c-1.43.11-3.33-.33-3.26-2.57,0-1.73,1.1-3.89,2.53-6.1A21.58,21.58,0,0,1,129.48,20h3.71l.29.51a22.37,22.37,0,0,0-1.79,2.32l.11.11a13.11,13.11,0,0,1,7.74-3.16c2.53,0,3.67,1.14,3.67,2.64,0,1.18-.84,2.24-1.91,3.78S139.25,29,139.25,30c0,.74.4,1.36,1.61,1.36a5.57,5.57,0,0,0,3.38-1.43l-.33,1a8.6,8.6,0,0,1-5.8,2.49C136,33.44,134.44,32.67,134.51,30.62Z"/><path class="cls-1" d="M150.84,14.07a20.74,20.74,0,0,0,1.62-1.58,2.05,2.05,0,0,1-1.62-2,2.38,2.38,0,0,1,4.74,0,5.11,5.11,0,0,1-2.35,3.67,9.75,9.75,0,0,1-4.88,2C149,15.72,150.07,14.76,150.84,14.07Z"/><path class="cls-1" d="M156.2,33.52c-3.59,0-5.69-1-6.79-2.21l.15-1.46a6.26,6.26,0,0,0,4.88,2c2.68,0,3.6-.88,3.67-1.9s-1-1.51-3.19-2.57c-1.73-.85-2.79-1.95-2.57-4,.29-2.57,3.12-3.93,6.75-3.93a10.07,10.07,0,0,1,6.35,1.8l-.18,1.47a6.49,6.49,0,0,0-4.33-1.62c-2.09,0-3.23.63-3.38,1.76s1,1.8,2.72,2.65c2.2,1.06,3.11,2.34,3,4C163,31.83,160.42,33.52,156.2,33.52Z"/><path class="cls-1" d="M203.36,13c-.48-1.24-2.72-3.26-6.75-3.26a14,14,0,0,0-9,3.19,15.46,15.46,0,0,0-5.8,11.23c-.11,4.88,2.9,7.45,8,7.45a17.32,17.32,0,0,0,10.49-3.63l-.47,1.72A18.64,18.64,0,0,1,187.73,34c-7.38,0-11.67-3.31-11.56-9.66.07-5.43,3.15-10.23,7.45-13.32A20.32,20.32,0,0,1,195.87,7.2c4.92,0,8.15,2.21,8.41,4.63Z"/><path class="cls-1" d="M208,33.59c-3.82,0-6.17-1.43-6.17-4.81a9,9,0,0,1,3.93-6.93,12.93,12.93,0,0,1,7.59-2.43c2.61,0,4.63.92,4.66,3.12s-2.12,3.75-4.44,4.44a17.93,17.93,0,0,1-6.68.81,4.7,4.7,0,0,0-.11.95c0,2.1,1.25,3,3.34,3a9.6,9.6,0,0,0,6-2.27l-.25,1.21A11.73,11.73,0,0,1,208,33.59Zm-.89-6.72a13.44,13.44,0,0,0,5.14-.66c1.91-.66,3.34-1.87,3.42-3.34,0-1.1-.63-1.76-1.95-1.76a6.05,6.05,0,0,0-3.82,1.58A9,9,0,0,0,207.1,26.87Z"/><path class="cls-1" d="M230,30.62c0-1.54.88-2.94,1.83-4.41s1.84-2.46,1.84-3.3-.52-1.14-1.69-1.14a9.67,9.67,0,0,0-5.62,2.68,33.71,33.71,0,0,0-3,4.88,33.12,33.12,0,0,0-1.76,4.08c-1.43.11-3.34-.33-3.27-2.57,0-1.73,1.1-3.89,2.53-6.1A21.32,21.32,0,0,1,225,20h3.7l.3.51a21.31,21.31,0,0,0-1.8,2.32l.11.11A13.11,13.11,0,0,1,235,19.79c2.53,0,3.67,1.14,3.67,2.64,0,1.18-.84,2.24-1.91,3.78s-2,2.83-2,3.78c0,.74.4,1.36,1.61,1.36a5.54,5.54,0,0,0,3.38-1.43l-.33,1a8.6,8.6,0,0,1-5.8,2.49C231.51,33.44,229.93,32.67,230,30.62Z"/><path class="cls-1" d="M241.93,29.81c0-2.64,1.51-5.58,3.45-8.44-1.21-.29-1.46-.66-1.28-1s.73-.55,2.6-.7A38.38,38.38,0,0,1,250.89,15h4l.19.36c-1,1.18-2.2,2.68-3.71,4.7l5.14,0-1,1.32-5.22.07c-2,2.75-4,5.91-4,8.19,0,1.24.77,1.87,2.28,1.87a6.7,6.7,0,0,0,4-1.62l-.33,1a7.86,7.86,0,0,1-6.2,2.57C244.17,33.48,241.93,32.63,241.93,29.81Z"/><path class="cls-1" d="M276,20.38l1.28.7c-.55.77-2.16,3.15-3,4.29A24.38,24.38,0,0,1,269,30.73a14.12,14.12,0,0,1-8.51,2.86c-3.86,0-6.24-1.4-6.24-4.81a9,9,0,0,1,3.92-6.93,13,13,0,0,1,7.6-2.43c2.61,0,4.62.92,4.66,3.12S268.36,26.25,266,27a18,18,0,0,1-6.68.81,4.47,4.47,0,0,0-.11.95c0,2.06,1.18,3,3.34,3a10.52,10.52,0,0,0,5.8-2.2,24.94,24.94,0,0,0,4.59-4.73C273.82,23.57,275.18,21.59,276,20.38Zm-16.48,6.49a13.44,13.44,0,0,0,5.14-.66c1.91-.66,3.34-1.87,3.41-3.34,0-1.1-.62-1.76-1.94-1.76a6,6,0,0,0-3.82,1.58A8.9,8.9,0,0,0,259.51,26.87Z"/><path class="cls-1" d="M276,20.38c.26-.37.48-.7.88-1.21.85-1.14,1.47-1.51,3.41-1.4,1.14,0,.89.66-.07,1.73-.22.25-.48.55-.73.8l5.91-.07a1.16,1.16,0,0,1,1.1,1.14,54,54,0,0,1-3.2,4.55c-1.1,1.61-2,3.08-2,4.07,0,.77.48,1.36,1.65,1.36a5.76,5.76,0,0,0,3.42-1.43l-.33,1a8.25,8.25,0,0,1-5.58,2.49c-2.06,0-3.71-.81-3.71-2.86a9.08,9.08,0,0,1,2-4.88c1-1.47,2.39-2.79,2.75-3.49.07-.33,0-.55-.59-.55h-4C275.77,21.66,275.37,21.29,276,20.38Z"/><path class="cls-2" d="M216.08,42.72a3.47,3.47,0,0,1-.77,2.39,2.75,2.75,0,0,1-2.14.86,2.82,2.82,0,0,1-1.51-.4,2.57,2.57,0,0,1-1-1.13,3.92,3.92,0,0,1-.36-1.72,3.44,3.44,0,0,1,.77-2.38,2.73,2.73,0,0,1,2.14-.85,2.64,2.64,0,0,1,2.09.87A3.39,3.39,0,0,1,216.08,42.72Zm-4.72,0a2.94,2.94,0,0,0,.47,1.79,1.58,1.58,0,0,0,1.36.61,1.62,1.62,0,0,0,1.37-.61,2.94,2.94,0,0,0,.46-1.79,2.75,2.75,0,0,0-.47-1.77,1.63,1.63,0,0,0-1.37-.6C212,40.35,211.36,41.14,211.36,42.72Z"/><path class="cls-2" d="M220.58,40.4H219v5.46h-1V40.4h-1.09v-.48l1.09-.35v-.36a2.55,2.55,0,0,1,.5-1.71,2,2,0,0,1,1.53-.56,3.77,3.77,0,0,1,1.22.21L221,38a2.87,2.87,0,0,0-.92-.17.87.87,0,0,0-.77.34A1.83,1.83,0,0,0,219,39.2v.41h1.57Z"/><path class="cls-2" d="M223.71,48.07a2.12,2.12,0,0,1-.87-.15V47a3,3,0,0,0,.85.12,1,1,0,0,0,.85-.35,1.52,1.52,0,0,0,.28-1V37.53h1.06v8.19a2.49,2.49,0,0,1-.56,1.74A2.07,2.07,0,0,1,223.71,48.07Z"/><path class="cls-2" d="M231.79,45.86l-.2-.89h-.05a2.62,2.62,0,0,1-.93.79,2.85,2.85,0,0,1-1.17.21,2,2,0,0,1-1.44-.48,1.78,1.78,0,0,1-.53-1.37c0-1.27,1-1.93,3-2l1.06,0v-.37a1.48,1.48,0,0,0-.31-1,1.24,1.24,0,0,0-1-.34,2.94,2.94,0,0,0-.94.15,5.52,5.52,0,0,0-.83.33l-.31-.77a4.9,4.9,0,0,1,1-.4,4.67,4.67,0,0,1,1.1-.14A2.47,2.47,0,0,1,232,40a2.07,2.07,0,0,1,.55,1.6v4.26Zm-2.12-.72a1.9,1.9,0,0,0,1.36-.46,1.76,1.76,0,0,0,.49-1.32V42.8l-.92,0a3.42,3.42,0,0,0-1.57.34,1,1,0,0,0-.49,1,1,1,0,0,0,.29.75A1.21,1.21,0,0,0,229.67,45.14Z"/><path class="cls-2" d="M237,46a2.7,2.7,0,0,1-2.1-.83,3.41,3.41,0,0,1-.75-2.38,3.51,3.51,0,0,1,.76-2.42,2.79,2.79,0,0,1,2.17-.85,3.94,3.94,0,0,1,.9.1,2.92,2.92,0,0,1,.74.24l-.32.85a3.86,3.86,0,0,0-1.35-.3,1.62,1.62,0,0,0-1.39.6,2.92,2.92,0,0,0-.45,1.77,2.87,2.87,0,0,0,.45,1.74,1.55,1.55,0,0,0,1.33.6,3.75,3.75,0,0,0,1.62-.37v.91A3.4,3.4,0,0,1,237,46Z"/><path class="cls-2" d="M241.08,42.64l.34-.44.4-.48,2-2.11H245l-2.53,2.66,2.7,3.59H244l-2.17-2.92-.71.62v2.3h-1V37h1v4.63l-.05,1Z"/><path class="cls-2" d="M250.36,44.13a1.59,1.59,0,0,1-.65,1.36,3.07,3.07,0,0,1-1.84.48,4.2,4.2,0,0,1-2-.39v-.94a4.47,4.47,0,0,0,2,.5,2,2,0,0,0,1.13-.25.78.78,0,0,0,.35-.67.75.75,0,0,0-.34-.62,4.88,4.88,0,0,0-1.2-.59,7.11,7.11,0,0,1-1.24-.58,1.71,1.71,0,0,1-.53-.55,1.49,1.49,0,0,1-.17-.73,1.4,1.4,0,0,1,.63-1.21,2.9,2.9,0,0,1,1.72-.45,4.77,4.77,0,0,1,2,.42l-.35.82a4.38,4.38,0,0,0-1.71-.4,1.92,1.92,0,0,0-1,.2.62.62,0,0,0-.33.56.7.7,0,0,0,.29.56,5.88,5.88,0,0,0,1.32.62,6.08,6.08,0,0,1,1.16.55,1.59,1.59,0,0,1,.54.56A1.49,1.49,0,0,1,250.36,44.13Z"/><path class="cls-2" d="M257.31,42.72a3.42,3.42,0,0,1-.78,2.39,2.74,2.74,0,0,1-2.14.86,2.78,2.78,0,0,1-1.5-.4,2.59,2.59,0,0,1-1-1.13,4.06,4.06,0,0,1-.35-1.72,3.44,3.44,0,0,1,.76-2.38,2.75,2.75,0,0,1,2.14-.85,2.68,2.68,0,0,1,2.1.87A3.39,3.39,0,0,1,257.31,42.72Zm-4.72,0a2.94,2.94,0,0,0,.46,1.79,1.61,1.61,0,0,0,1.37.61,1.59,1.59,0,0,0,1.36-.61,2.94,2.94,0,0,0,.47-1.79,2.81,2.81,0,0,0-.47-1.77,1.65,1.65,0,0,0-1.38-.6C253.19,40.35,252.59,41.14,252.59,42.72Z"/><path class="cls-2" d="M263.19,45.86v-4a1.69,1.69,0,0,0-.34-1.14,1.4,1.4,0,0,0-1.06-.37,1.71,1.71,0,0,0-1.4.53,2.78,2.78,0,0,0-.44,1.74v3.24h-1V39.61h.82l.16.85h0a2,2,0,0,1,.82-.72,2.73,2.73,0,0,1,1.15-.25,2.33,2.33,0,0,1,1.71.56,2.38,2.38,0,0,1,.56,1.74v4.07Z"/><path class="cls-2" d="M267.51,45.86l-2.37-6.25h1.1l1.33,3.68a13.39,13.39,0,0,1,.5,1.65h.05s0-.1,0-.16l.06-.21c0-.07.16-.5.42-1.28L270,39.61h1.09l-2.37,6.25Z"/><path class="cls-2" d="M272,37.91a.61.61,0,0,1,.17-.49.64.64,0,0,1,.43-.15.64.64,0,0,1,.42.15.61.61,0,0,1,.18.49.64.64,0,0,1-.18.5.6.6,0,0,1-.42.16.6.6,0,0,1-.43-.16A.63.63,0,0,1,272,37.91Zm1.1,8h-1V39.61h1Z"/><path class="cls-2" d="M276.09,45.86h-1V37h1Z"/><path class="cls-2" d="M279.09,45.86h-1V37h1Z"/><path class="cls-2" d="M283.73,46a2.89,2.89,0,0,1-2.21-.85,3.3,3.3,0,0,1-.79-2.34,3.61,3.61,0,0,1,.74-2.4,2.51,2.51,0,0,1,2-.89,2.4,2.4,0,0,1,1.87.76,2.91,2.91,0,0,1,.7,2.06v.62h-4.28a2.42,2.42,0,0,0,.54,1.62,1.94,1.94,0,0,0,1.46.55,4.86,4.86,0,0,0,1-.09,5.47,5.47,0,0,0,1-.34v.9a5.66,5.66,0,0,1-1,.31A5.74,5.74,0,0,1,283.73,46Zm-.26-5.64a1.51,1.51,0,0,0-1.16.47,2.23,2.23,0,0,0-.5,1.32H285a2,2,0,0,0-.41-1.34A1.39,1.39,0,0,0,283.47,40.33Z"/></svg>